# xmcd
#
# Track frame offsets:
#	182
#	13892
#	32747
#	46780
#	62635
#	83382
#	103122
#	122695
#	140080
#	163582
#	185215
#	201592
#
# Disc length: 2934 seconds
#
# Revision: 0
# Processed by: cddbd v1.5.1PL2 Copyright (c) Steve Scherf et al.
# Submitted via: audiograbber 1.81.03
#
DISCID=a80b740c
DTITLE=Precious Metal - Precious Metal
DYEAR=1990
DGENRE=Rock and Roll
TTITLE0=Mr. Big Stuff
TTITLE1=Trouble
TTITLE2=Two Hearts
TTITLE3=Thrilling Life
TTITLE4=Forever Tonight
TTITLE5=Reckless
TTITLE6=Eazier Than You Think
TTITLE7=Nasty Habits
TTITLE8=Downhill Dreamer
TTITLE9=In The Mood
TTITLE10=Howl At The Moon
TTITLE11=Chasing Rainbow
EXTD=
EXTT0=
EXTT1=
EXTT2=
EXTT3=
EXTT4=
EXTT5=
EXTT6=
EXTT7=
EXTT8=
EXTT9=
EXTT10=
EXTT11=
PLAYORDER=
